<svg width="330" height="327" viewBox="0 0 330 327" fill="none" xmlns="http://www.w3.org/2000/svg">
<path fill-rule="evenodd" clip-rule="evenodd" d="M59.4427 69.3258C59.4427 69.3258 81.1341 72.1602 101.348 80.7694C111.455 84.9999 121.583 89.2939 128.8 93.5879C134.645 99.2779 140.384 102.197 140.384 102.197C147.622 107.887 159.206 106.428 164.966 99.2779C172.204 90.7534 170.791 80.7694 162.076 75.0158C160.684 73.6198 138.992 56.4227 114.346 47.8981C88.3717 36.4546 66.6803 33.599 65.2028 33.599C55.0958 32.1394 46.3807 39.289 44.9888 47.8981C43.5113 57.8822 49.25 66.4913 59.4427 69.3258ZM120.17 34.9949C131.755 36.4544 143.275 43.5829 143.275 43.5829C150.513 49.2729 162.076 46.4385 167.922 37.914C173.682 30.7644 170.791 19.3208 162.076 13.5673C160.684 12.1712 146.23 3.58322 128.8 0.72761C120.17 -2.10685 110.063 3.58322 107.108 13.5673C105.717 23.6148 111.455 32.1393 120.17 34.9949ZM27.5607 113.577C29.0382 113.577 53.6205 116.496 86.8964 130.774C123.063 146.448 140.386 165.041 140.386 165.041V163.582C146.232 172.17 156.339 175.025 164.968 167.876C173.684 162.186 175.14 150.742 169.315 143.614C167.923 140.758 147.624 117.871 102.828 99.2778C63.7274 80.7692 34.7984 79.3097 33.4065 79.3097C23.2781 77.8502 14.5844 84.9998 13.1069 93.5877C11.6936 103.593 18.9313 112.181 27.5607 113.577ZM261.926 246.458C234.41 276.495 206.958 285.019 191.005 286.479C189.614 269.345 192.483 239.308 219.934 209.356C245.994 182.154 276.379 173.629 293.724 170.71C292.246 190.763 285.03 222.175 261.926 246.458ZM138.995 286.479C123.064 285.019 95.6125 276.495 68.0752 246.458C44.9919 222.175 37.7543 190.763 36.2768 170.71C55.0989 173.629 84.028 182.154 110.066 209.356C137.518 239.308 140.387 269.345 138.995 286.479ZM329.892 150.742C329.892 142.154 322.654 135.004 313.96 133.608C311.069 133.608 247.473 129.314 193.897 185.009C180.899 199.287 170.792 215.046 164.968 229.324C159.208 215.046 150.514 199.287 136.039 185.009C82.5491 129.314 18.9308 133.608 16.0615 133.608C7.34636 135.004 1.58624 142.154 0.108737 150.742C0.108737 153.598 -4.23812 220.736 42.0355 270.741C95.6111 329.334 149.101 326.499 166.446 326.499C180.899 326.499 234.411 329.334 287.9 270.741C334.238 220.736 329.892 153.598 329.892 150.742Z" fill="#FFB748"/>
</svg>
