<svg width="85" height="148" viewBox="0 0 85 148" fill="none" xmlns="http://www.w3.org/2000/svg">
<path d="M15.0253 49.1208C15.5567 49.1208 25.7048 46.5015 24.8444 28.6221C23.9839 10.7428 17.7205 11.5273 17.3915 0.784485C17.3915 0.784485 9.25528 10.5024 6.71194 27.7237C4.16859 44.9451 12.9375 48.9942 15.0253 49.1208Z" fill="#263238" stroke="#263238" stroke-width="1.26535" stroke-linecap="round" stroke-linejoin="round"/>
<path d="M2.37199 101.569C0.992765 125.029 1.10661 193.294 6.05412 193.585C11.0016 193.876 19.1125 126.092 20.4918 102.632C21.871 79.1725 18.9227 59.9266 13.9246 59.6103C8.9265 59.2939 3.80184 78.1097 2.37199 101.569Z" fill="white" stroke="#263238" stroke-width="1.26535" stroke-linecap="round" stroke-linejoin="round"/>
<path d="M2.37199 101.569C0.992765 125.029 1.10661 193.294 6.05412 193.585C11.0016 193.876 19.1125 126.092 20.4918 102.632C21.871 79.1725 18.9227 59.9266 13.9246 59.6103C8.9265 59.2939 3.80184 78.1097 2.37199 101.569Z" fill="#BFBFBF" stroke="#263238" stroke-width="1.26535" stroke-linecap="round" stroke-linejoin="round"/>
<path d="M17.9743 68.6689L8.94256 68.1387C8.6712 68.1227 8.41728 67.9997 8.23667 67.7965C8.05605 67.5934 7.96353 67.3268 7.97946 67.0554L9.26542 45.152L20.3435 45.8024L19.0575 67.7058C19.0416 67.9772 18.9185 68.2311 18.7154 68.4117C18.5122 68.5923 18.2456 68.6849 17.9743 68.6689Z" fill="white" stroke="#263238" stroke-width="1.26535" stroke-linecap="round" stroke-linejoin="round"/>
<path opacity="0.5" d="M17.9743 68.6689L8.94256 68.1387C8.6712 68.1227 8.41728 67.9997 8.23667 67.7965C8.05605 67.5934 7.96353 67.3268 7.97946 67.0554L9.26542 45.152L20.3435 45.8024L19.0575 67.7058C19.0416 67.9772 18.9185 68.2311 18.7154 68.4117C18.5122 68.5923 18.2456 68.6849 17.9743 68.6689Z" fill="white" stroke="#263238" stroke-width="1.26535" stroke-linecap="round" stroke-linejoin="round"/>
<path d="M17.4296 0.82251C17.7586 11.502 24.0346 10.7049 24.8824 28.6601C24.9725 30.4192 24.9387 32.1824 24.7813 33.9367C24.3384 35.1387 23.7057 35.8726 22.7566 35.7081C18.9606 35.0248 20.8587 21.3591 18.1382 20.8403C15.4177 20.3215 16.5185 27.4707 13.0768 26.914C9.63505 26.3572 9.38193 32.7978 6.38306 32.0766C6.44632 30.748 6.5602 29.3561 6.77531 27.825C9.29335 10.5657 17.4296 0.82251 17.4296 0.82251Z" fill="#FFB748" stroke="#263238" stroke-width="1.26535" stroke-linecap="round" stroke-linejoin="round"/>
<path d="M68.17 175.516C81.0133 165.393 92.9329 147.02 93.8059 134.013C96.6403 91.6994 65.7405 84.6641 58.5027 84.7273C51.2649 84.7906 43.8627 87.3466 36.7641 90.4341C29.9339 93.2329 23.4811 96.8759 17.5561 101.278C11.4492 105.85 6.51769 111.809 3.16912 118.664C1.60009 122.093 0.549856 126.066 1.90378 129.166C3.70057 133.506 9.09094 134.291 13.836 134.228C18.581 134.164 23.8829 133.823 26.9956 137.1C29.6782 139.922 29.868 144.806 28.4128 149.07C26.7298 153.323 24.2665 157.224 21.1497 160.572C18.7678 163.147 16.593 165.905 14.6458 168.822C12.7064 171.667 11.7754 175.079 12.0012 178.515C12.2258 179.958 12.765 181.334 13.5807 182.545C14.3963 183.757 15.4684 184.774 16.721 185.525C19.2329 186.957 22.0178 187.845 24.8951 188.132C39.2062 190.118 55.3014 185.639 68.17 175.516ZM28.2103 165.963C27.4883 164.614 27.2651 163.053 27.5799 161.556C27.8946 160.058 28.7272 158.72 29.9312 157.776C30.5222 157.391 31.1904 157.14 31.8889 157.041C32.5873 156.943 33.299 156.999 33.9735 157.205C34.648 157.411 35.269 157.763 35.7927 158.236C36.3165 158.708 36.7301 159.29 37.0045 159.94C37.729 161.288 37.9537 162.849 37.6388 164.347C37.3239 165.845 36.4897 167.184 35.2836 168.126C34.6917 168.512 34.0224 168.762 33.3231 168.861C32.6237 168.96 31.9113 168.904 31.2358 168.698C30.5603 168.492 29.9382 168.14 29.4133 167.667C28.8884 167.195 28.4735 166.613 28.1976 165.963H28.2103Z" fill="white" stroke="#263238" stroke-width="1.26535" stroke-linecap="round" stroke-linejoin="round"/>
<path d="M68.1699 173.947C81.0131 163.824 92.9454 145.451 93.8185 132.444C96.6402 90.1303 65.7404 83.095 58.5153 83.1583C51.2901 83.2216 43.8752 85.7775 36.7766 88.865C29.942 91.6628 23.4849 95.3059 17.556 99.709C11.449 104.281 6.51756 110.24 3.169 117.095C1.58731 120.511 0.549728 124.485 1.90365 127.585C3.68779 131.925 9.0908 132.722 13.8232 132.646C18.5556 132.57 23.946 132.241 26.9955 135.518C29.678 138.34 29.8678 143.224 28.4 147.489C26.704 151.744 24.2278 155.645 21.0989 158.991C18.7216 161.569 16.5471 164.327 14.595 167.241C12.6654 170.089 11.7395 173.5 11.9632 176.933C12.1846 178.376 12.7212 179.752 13.5347 180.963C14.3483 182.175 15.4188 183.192 16.6702 183.943C19.1813 185.375 21.9671 186.259 24.8444 186.537C39.2061 188.536 55.3013 184.07 68.1699 173.947ZM28.2229 164.394C27.4983 163.045 27.2737 161.484 27.5886 159.986C27.9034 158.488 28.7376 157.149 29.9437 156.207C30.5347 155.822 31.203 155.571 31.9014 155.472C32.5999 155.374 33.3115 155.429 33.986 155.636C34.6606 155.842 35.2816 156.194 35.8053 156.666C36.329 157.139 36.7426 157.721 37.017 158.371C37.7431 159.725 37.9661 161.293 37.6465 162.796C37.3268 164.299 36.4852 165.641 35.2708 166.583C32.8414 168.215 29.678 167.241 28.1975 164.394H28.2229Z" fill="white" stroke="#263238" stroke-width="1.26535" stroke-linecap="round" stroke-linejoin="round"/>
<g opacity="0.5">
<path opacity="0.5" d="M68.1699 173.947C81.0131 163.824 92.9454 145.451 93.8185 132.444C96.6402 90.1303 65.7404 83.095 58.5153 83.1583C51.2901 83.2216 43.8752 85.7775 36.7766 88.865C29.942 91.6628 23.4849 95.3059 17.556 99.709C11.449 104.281 6.51756 110.24 3.169 117.095C1.58731 120.511 0.549728 124.485 1.90365 127.585C3.68779 131.925 9.0908 132.722 13.8232 132.646C18.5556 132.57 23.946 132.241 26.9955 135.518C29.678 138.34 29.8678 143.224 28.4 147.489C26.704 151.744 24.2278 155.645 21.0989 158.991C18.7216 161.569 16.5471 164.327 14.595 167.241C12.6654 170.089 11.7395 173.5 11.9632 176.933C12.1846 178.376 12.7212 179.752 13.5347 180.963C14.3483 182.175 15.4188 183.192 16.6702 183.943C19.1813 185.375 21.9671 186.259 24.8444 186.537C39.2061 188.536 55.3013 184.07 68.1699 173.947ZM28.2229 164.394C27.4983 163.045 27.2737 161.484 27.5886 159.986C27.9034 158.488 28.7376 157.149 29.9437 156.207C30.5347 155.822 31.203 155.571 31.9014 155.472C32.5999 155.374 33.3115 155.429 33.986 155.636C34.6606 155.842 35.2816 156.194 35.8053 156.666C36.329 157.139 36.7426 157.721 37.017 158.371C37.7431 159.725 37.9661 161.293 37.6465 162.796C37.3268 164.299 36.4852 165.641 35.2708 166.583C32.8414 168.215 29.678 167.241 28.1975 164.394H28.2229Z" fill="white" stroke="#263238" stroke-width="1.26535" stroke-linecap="round" stroke-linejoin="round"/>
</g>
<path d="M44.8243 131.558C43.4848 131.947 42.2222 132.563 41.0915 133.38C40.4298 133.784 39.8607 134.323 39.4213 134.962C39.1888 135.31 39.0412 135.707 38.9907 136.123C38.9401 136.538 38.9879 136.96 39.1302 137.353C39.2753 137.618 39.3899 137.898 39.4719 138.188C39.6111 138.96 38.9152 139.58 38.776 140.34C38.7281 140.775 38.8265 141.214 39.0556 141.587C39.2846 141.961 39.6314 142.247 40.0413 142.402C40.802 142.623 41.6037 142.662 42.3822 142.516C42.9655 142.442 43.5575 142.476 44.1284 142.617C44.5333 142.744 44.9255 142.959 45.3937 143.123C46.3237 143.427 47.316 143.486 48.2754 143.295C49.2349 143.105 50.1293 142.671 50.8727 142.035C51.3868 141.69 51.7944 141.208 52.0495 140.643C52.2042 140.162 52.2537 139.653 52.1948 139.151C52.1359 138.649 51.9698 138.165 51.7078 137.733C51.1946 136.922 50.5487 136.204 49.7971 135.607C49.8884 134.966 49.9223 134.318 49.8983 133.671C49.7976 133.03 49.4698 132.446 48.9747 132.026C48.356 131.657 47.6657 131.425 46.95 131.344C46.2343 131.263 45.5096 131.336 44.8243 131.558Z" fill="#FFB748"/>
<path d="M46.0896 121.65C44.751 122.031 43.4912 122.649 42.3695 123.472C41.7068 123.88 41.1342 124.418 40.6866 125.054C40.4595 125.404 40.3152 125.802 40.2648 126.216C40.2144 126.631 40.2591 127.051 40.3956 127.446C40.5394 127.712 40.658 127.992 40.7499 128.281C40.8764 129.053 40.1805 129.66 40.0413 130.432C39.9978 130.867 40.098 131.304 40.3265 131.676C40.555 132.049 40.8993 132.336 41.3066 132.494C42.0735 132.705 42.8781 132.74 43.6602 132.596C44.2401 132.526 44.8279 132.564 45.3937 132.71C45.8113 132.836 46.1909 133.051 46.659 133.203C47.5896 133.512 48.584 133.575 49.5461 133.386C50.5082 133.198 51.4053 132.764 52.1507 132.127C52.4951 131.906 52.7907 131.616 53.0199 131.277C53.2491 130.937 53.4069 130.555 53.4838 130.153C53.5607 129.75 53.5552 129.337 53.4674 128.937C53.3796 128.536 53.2114 128.158 52.9731 127.825C52.4645 127.015 51.8228 126.296 51.0751 125.699C51.161 125.054 51.1906 124.402 51.1637 123.751C51.056 123.115 50.7347 122.535 50.2527 122.106C49.6282 121.746 48.9357 121.519 48.219 121.441C47.5024 121.362 46.7772 121.434 46.0896 121.65Z" fill="#FFB748"/>
<path d="M58.1863 169.113C59.0974 170.189 60.1477 171.113 61.084 172.163C61.2184 172.298 61.3107 172.47 61.3497 172.656C61.3497 173.099 60.8815 173.302 60.5019 173.238C58.9835 172.985 58.1104 171.125 57.4777 169.506C57.1361 169.708 57.1614 170.277 57.1741 170.771C57.1867 171.264 57.0096 171.809 56.6173 171.758C56.225 171.707 56.1998 171.404 56.0985 171.113C55.3489 169.018 54.8436 166.844 54.5928 164.634C55.8328 164.052 57.3638 168.088 58.1863 169.113Z" fill="#FFB748"/>
<path d="M64.1841 163.9C64.0436 163.781 63.8765 163.697 63.6969 163.656C63.5172 163.614 63.3303 163.617 63.1518 163.662C62.9732 163.708 62.8083 163.796 62.6709 163.919C62.5334 164.042 62.4275 164.196 62.362 164.368C62.2216 164.742 62.2184 165.153 62.3528 165.528C62.4872 165.904 62.7505 166.219 63.0959 166.418C63.4064 166.539 63.7508 166.54 64.0619 166.42C64.373 166.301 64.6286 166.07 64.7788 165.773C64.9527 165.448 65.0437 165.085 65.0437 164.716C65.0437 164.348 64.9527 163.985 64.7788 163.66C64.6523 163.407 64.1967 163.318 64.26 163.66L64.1841 163.9Z" fill="#FFB748"/>
<path d="M60.7169 163.698C60.6708 163.66 60.6164 163.633 60.558 163.62C60.4996 163.607 60.439 163.608 60.381 163.623C60.323 163.637 60.2693 163.666 60.2244 163.705C60.1794 163.745 60.1444 163.794 60.1223 163.85C60.0742 163.974 60.0721 164.111 60.1162 164.236C60.1602 164.361 60.2477 164.467 60.3627 164.533C60.4658 164.57 60.5789 164.569 60.6812 164.529C60.7834 164.49 60.8681 164.415 60.9194 164.318C60.976 164.211 61.0055 164.091 61.0055 163.97C61.0055 163.849 60.976 163.729 60.9194 163.622C60.9194 163.534 60.7296 163.508 60.7423 163.622L60.7169 163.698Z" fill="#FFB748"/>
<path d="M54.1752 160.94C54.0756 160.862 53.9594 160.808 53.8355 160.782C53.7117 160.756 53.5836 160.759 53.4611 160.791C53.3387 160.823 53.2254 160.883 53.1297 160.965C53.0341 161.048 52.9589 161.152 52.9099 161.269C52.8055 161.535 52.8005 161.83 52.8957 162.099C52.991 162.369 53.1802 162.595 53.4286 162.736C53.6496 162.825 53.8959 162.828 54.1186 162.743C54.3413 162.659 54.524 162.494 54.6307 162.281C54.7548 162.047 54.8197 161.786 54.8197 161.522C54.8197 161.257 54.7548 160.996 54.6307 160.762C54.5421 160.585 54.2132 160.522 54.2511 160.762L54.1752 160.94Z" fill="#FFB748"/>
<path d="M51.0117 163.799C50.1966 163.446 49.3057 163.304 48.4211 163.386C47.5365 163.467 46.6868 163.771 45.9503 164.268C45.2541 164.714 44.6904 165.339 44.3181 166.077C44.1283 166.469 44.0144 166.899 43.7992 167.266C42.749 169.038 40.1804 168.418 38.8391 169.911C38.6541 170.083 38.5287 170.309 38.4809 170.557C38.4331 170.805 38.4655 171.062 38.5734 171.29C38.6735 171.496 38.8407 171.663 39.0476 171.761C39.2545 171.86 39.4888 171.886 39.7122 171.834C40.6992 171.619 41.1547 170.569 41.8633 169.898C42.136 169.585 42.5047 169.37 42.912 169.288C43.3193 169.205 43.7424 169.26 44.1156 169.443C45.2544 170.291 40.0918 173.239 37.966 176.516C37.7129 176.908 35.992 178.313 36.1945 178.73C36.8778 180.072 38.7252 177.984 39.7249 176.352C40.3247 175.218 41.1937 174.249 42.2556 173.53C42.825 173.214 43.2931 174.175 42.749 174.567C42.458 174.783 42.1417 174.972 41.8506 175.162C41.0535 175.668 40.2942 176.845 40.8636 177.693C41.9913 176.823 42.9517 175.755 43.698 174.542C44.192 173.865 44.832 173.307 45.5708 172.91C46.2034 172.606 46.8361 173.467 46.4185 174.112C45.8577 175.081 45.1914 175.985 44.4319 176.807C44.504 176.94 44.6067 177.053 44.7313 177.138C44.856 177.223 44.999 177.277 45.1487 177.295C45.2984 177.314 45.4503 177.296 45.5919 177.245C45.7335 177.193 45.8608 177.108 45.963 176.997C46.3818 176.496 46.7036 175.921 46.912 175.301C47.1904 174.694 47.6333 174.099 48.1774 174.036C48.5074 174.065 48.8292 174.155 49.1264 174.302C55.1368 176.617 56.7817 166.267 51.0117 163.799Z" fill="#92E3A9"/>
<path d="M51.0117 163.799C50.1966 163.446 49.3057 163.304 48.4211 163.386C47.5365 163.467 46.6868 163.771 45.9503 164.268C45.2541 164.714 44.6904 165.339 44.3181 166.077C44.1283 166.469 44.0144 166.899 43.7992 167.266C42.749 169.038 40.1804 168.418 38.8391 169.911C38.6541 170.083 38.5287 170.309 38.4809 170.557C38.4331 170.805 38.4655 171.062 38.5734 171.29C38.6735 171.496 38.8407 171.663 39.0476 171.761C39.2545 171.86 39.4888 171.886 39.7122 171.834C40.6992 171.619 41.1547 170.569 41.8633 169.898C42.136 169.585 42.5047 169.37 42.912 169.288C43.3193 169.205 43.7424 169.26 44.1156 169.443C45.2544 170.291 40.0918 173.239 37.966 176.516C37.7129 176.908 35.992 178.313 36.1945 178.73C36.8778 180.072 38.7252 177.984 39.7249 176.352C40.3247 175.218 41.1937 174.249 42.2556 173.53C42.825 173.214 43.2931 174.175 42.749 174.567C42.458 174.783 42.1417 174.972 41.8506 175.162C41.0535 175.668 40.2942 176.845 40.8636 177.693C41.9913 176.823 42.9517 175.755 43.698 174.542C44.192 173.865 44.832 173.307 45.5708 172.91C46.2034 172.606 46.8361 173.467 46.4185 174.112C45.8577 175.081 45.1914 175.985 44.4319 176.807C44.504 176.94 44.6067 177.053 44.7313 177.138C44.856 177.223 44.999 177.277 45.1487 177.295C45.2984 177.314 45.4503 177.296 45.5919 177.245C45.7335 177.193 45.8608 177.108 45.963 176.997C46.3818 176.496 46.7036 175.921 46.912 175.301C47.1904 174.694 47.6333 174.099 48.1774 174.036C48.5074 174.065 48.8292 174.155 49.1264 174.302C55.1368 176.617 56.7817 166.267 51.0117 163.799Z" fill="#FFB748"/>
<path d="M35.9416 174.011C35.8421 173.93 35.725 173.875 35.5999 173.848C35.4748 173.822 35.3452 173.826 35.2218 173.859C35.0983 173.892 34.9846 173.954 34.8898 174.04C34.7949 174.126 34.7218 174.233 34.6762 174.352C34.5719 174.619 34.5668 174.913 34.6621 175.183C34.7574 175.452 34.9465 175.679 35.195 175.82C35.4255 175.92 35.686 175.928 35.9218 175.841C36.1576 175.753 36.3506 175.578 36.4603 175.352C36.5822 175.12 36.6459 174.861 36.6459 174.599C36.6459 174.337 36.5822 174.078 36.4603 173.846C36.3591 173.669 36.0428 173.593 36.0807 173.846L35.9416 174.011Z" fill="#92E3A9"/>
<path d="M35.9416 174.011C35.8421 173.93 35.725 173.875 35.5999 173.848C35.4748 173.822 35.3452 173.826 35.2218 173.859C35.0983 173.892 34.9846 173.954 34.8898 174.04C34.7949 174.126 34.7218 174.233 34.6762 174.352C34.5719 174.619 34.5668 174.913 34.6621 175.183C34.7574 175.452 34.9465 175.679 35.195 175.82C35.4255 175.92 35.686 175.928 35.9218 175.841C36.1576 175.753 36.3506 175.578 36.4603 175.352C36.5822 175.12 36.6459 174.861 36.6459 174.599C36.6459 174.337 36.5822 174.078 36.4603 173.846C36.3591 173.669 36.0428 173.593 36.0807 173.846L35.9416 174.011Z" fill="#92E3A9"/>
<path d="M35.9416 174.011C35.8421 173.93 35.725 173.875 35.5999 173.848C35.4748 173.822 35.3452 173.826 35.2218 173.859C35.0983 173.892 34.9846 173.954 34.8898 174.04C34.7949 174.126 34.7218 174.233 34.6762 174.352C34.5719 174.619 34.5668 174.913 34.6621 175.183C34.7574 175.452 34.9465 175.679 35.195 175.82C35.4255 175.92 35.686 175.928 35.9218 175.841C36.1576 175.753 36.3506 175.578 36.4603 175.352C36.5822 175.12 36.6459 174.861 36.6459 174.599C36.6459 174.337 36.5822 174.078 36.4603 173.846C36.3591 173.669 36.0428 173.593 36.0807 173.846L35.9416 174.011Z" fill="#92E3A9"/>
<path d="M35.9416 174.011C35.8421 173.93 35.725 173.875 35.5999 173.848C35.4748 173.822 35.3452 173.826 35.2218 173.859C35.0983 173.892 34.9846 173.954 34.8898 174.04C34.7949 174.126 34.7218 174.233 34.6762 174.352C34.5719 174.619 34.5668 174.913 34.6621 175.183C34.7574 175.452 34.9465 175.679 35.195 175.82C35.4255 175.92 35.686 175.928 35.9218 175.841C36.1576 175.753 36.3506 175.578 36.4603 175.352C36.5822 175.12 36.6459 174.861 36.6459 174.599C36.6459 174.337 36.5822 174.078 36.4603 173.846C36.3591 173.669 36.0428 173.593 36.0807 173.846L35.9416 174.011Z" fill="#FFB748"/>
<path d="M69.7769 146.109C67.9042 146.299 65.7405 147.096 65.2596 149.197C65.223 149.75 65.0812 150.291 64.8421 150.791C64.3992 151.437 63.4248 151.538 63.235 152.348L63.678 152.803C61.9643 152.79 60.2583 153.033 58.6166 153.524H62.8302L59.6921 154.562C61.2967 154.217 62.9486 154.148 64.5763 154.359C63.9963 154.917 63.2812 155.314 62.5012 155.511C62.8682 156.333 63.9816 156.017 64.6143 156.586C64.887 156.905 65.109 157.263 65.2723 157.649C65.4758 158.004 65.7777 158.292 66.1415 158.478C66.5054 158.665 66.9155 158.742 67.3222 158.7C67.7282 158.617 68.1032 158.423 68.4049 158.139C68.7067 157.855 68.9233 157.493 69.0304 157.093C70.3843 158.156 72.257 157.548 73.5097 156.384C73.8718 155.95 74.2986 155.575 74.775 155.271C76.0404 154.663 76.7617 154.435 75.7747 154.334C76.5339 154.043 76.2175 153.069 75.2938 152.879C76.5592 152.778 76.749 151.778 75.5596 151.841C75.4029 151.382 75.1673 150.954 74.8636 150.576C77.3057 147.476 71.2827 145.97 69.7769 146.109Z" fill="#92E3A9"/>
<path d="M62.5138 146.894C62.417 146.716 62.2548 146.582 62.0613 146.52C61.8679 146.459 61.6582 146.475 61.4762 146.565C61.1189 146.764 60.815 147.046 60.5905 147.388C60.4648 147.522 60.3698 147.681 60.3121 147.856C60.283 148.11 60.3314 148.367 60.4512 148.592C60.5709 148.818 60.7562 149.003 60.9827 149.121C61.1959 149.281 61.4396 149.394 61.6987 149.455C61.9577 149.516 62.2266 149.523 62.4885 149.475C62.7608 149.406 63.0042 149.253 63.1838 149.037C63.3634 148.821 63.4699 148.554 63.4881 148.273C63.4881 147.679 63.0452 147.008 62.5391 147.135L62.5138 146.894Z" fill="#92E3A9"/>
<path d="M69.7769 146.109C67.9042 146.299 65.7405 147.096 65.2596 149.197C65.223 149.75 65.0812 150.291 64.8421 150.791C64.3992 151.437 63.4248 151.538 63.235 152.348L63.678 152.803C61.9643 152.79 60.2583 153.033 58.6166 153.524H62.8302L59.6921 154.562C61.2967 154.217 62.9486 154.148 64.5763 154.359C63.9963 154.917 63.2812 155.314 62.5012 155.511C62.8682 156.333 63.9816 156.017 64.6143 156.586C64.887 156.905 65.109 157.263 65.2723 157.649C65.4758 158.004 65.7777 158.292 66.1415 158.478C66.5054 158.665 66.9155 158.742 67.3222 158.7C67.7282 158.617 68.1032 158.423 68.4049 158.139C68.7067 157.855 68.9233 157.493 69.0304 157.093C70.3843 158.156 72.257 157.548 73.5097 156.384C73.8718 155.95 74.2986 155.575 74.775 155.271C76.0404 154.663 76.7617 154.435 75.7747 154.334C76.5339 154.043 76.2175 153.069 75.2938 152.879C76.5592 152.778 76.749 151.778 75.5596 151.841C75.4029 151.382 75.1673 150.954 74.8636 150.576C77.3057 147.476 71.2827 145.97 69.7769 146.109Z" fill="#FFB748"/>
<path d="M62.5138 146.894C62.417 146.716 62.2548 146.582 62.0613 146.521C61.8679 146.459 61.6582 146.475 61.4762 146.565C61.1189 146.764 60.815 147.046 60.5905 147.388C60.4648 147.522 60.3698 147.682 60.3121 147.856C60.283 148.11 60.3314 148.367 60.4512 148.593C60.5709 148.819 60.7562 149.003 60.9827 149.121C61.1959 149.281 61.4396 149.394 61.6987 149.455C61.9577 149.516 62.2266 149.523 62.4885 149.476C62.7608 149.407 63.0042 149.253 63.1838 149.037C63.3634 148.821 63.4699 148.554 63.4881 148.274C63.4881 147.679 63.0452 147.008 62.5391 147.135L62.5138 146.894Z" fill="#FFB748"/>
<path d="M77.9131 127.623C77.27 127.449 76.5963 127.418 75.9402 127.534C75.284 127.65 74.6615 127.91 74.1171 128.294C72.9585 129.117 71.9522 130.136 71.1434 131.305C70.8116 131.643 70.5712 132.059 70.445 132.515C70.3188 132.971 70.311 133.452 70.4223 133.912C70.5108 134.14 70.6753 134.342 70.7512 134.595C70.7955 134.956 70.7955 135.322 70.7512 135.683C70.7512 136.05 70.9284 136.493 71.2447 136.493C71.6623 136.253 71.7002 135.607 71.7888 135.076C71.8836 134.402 72.1648 133.767 72.6008 133.244C73.0367 132.721 73.61 132.33 74.2562 132.115C74.173 132.131 74.0944 132.165 74.0265 132.215C73.9585 132.266 73.9029 132.331 73.864 132.406C74.6517 133.335 75.7012 134.005 76.8755 134.329C76.1472 134.531 75.3899 134.608 74.6358 134.557L76.2807 135.139C76.1401 135.348 75.9524 135.521 75.7326 135.644C75.5128 135.767 75.2671 135.837 75.0154 135.848L76.4832 137.189C75.3738 138.065 73.9665 138.473 72.5606 138.328C72.7291 138.788 73.0453 139.179 73.4597 139.44C73.8742 139.701 74.3634 139.817 74.851 139.77C75.1368 139.678 75.4363 139.635 75.7367 139.644C76.0286 139.727 76.3091 139.846 76.5718 139.998C77.1298 140.154 77.7225 140.132 78.2673 139.935C80.1148 139.479 82.2153 138.606 82.7467 136.493C83.1694 134.679 82.9104 132.773 82.0191 131.138C81.1279 129.502 79.6666 128.251 77.9131 127.623Z" fill="#FFB748"/>
<path d="M79.7732 139.239C79.6728 139.161 79.5558 139.108 79.4313 139.083C79.3068 139.058 79.1783 139.062 79.0557 139.095C78.9332 139.128 78.8199 139.189 78.7249 139.274C78.6298 139.358 78.5555 139.463 78.5079 139.58C78.4152 139.85 78.416 140.142 78.5102 140.411C78.6043 140.679 78.7863 140.908 79.0267 141.061C79.2573 141.161 79.5177 141.168 79.7535 141.081C79.9893 140.994 80.1823 140.819 80.292 140.593C80.4161 140.359 80.4809 140.098 80.4809 139.833C80.4809 139.569 80.4161 139.308 80.292 139.074C80.1908 138.897 79.8745 138.834 79.9125 139.074L79.7732 139.239Z" fill="#FFB748"/>
<path d="M73.13 138.986C73.0304 138.908 72.9142 138.854 72.7903 138.828C72.6665 138.802 72.5384 138.806 72.416 138.837C72.2936 138.869 72.1801 138.929 72.0845 139.012C71.9889 139.094 71.9136 139.198 71.8647 139.315C71.7732 139.585 71.7759 139.879 71.8724 140.148C71.9689 140.416 72.1535 140.645 72.3962 140.795C72.6267 140.896 72.8871 140.903 73.123 140.816C73.3588 140.728 73.5518 140.553 73.6615 140.327C73.7835 140.093 73.8472 139.832 73.8472 139.568C73.8472 139.304 73.7835 139.043 73.6615 138.809C73.5603 138.631 73.2439 138.568 73.2818 138.809L73.13 138.986Z" fill="#FFB748"/>
<path d="M67.3222 135.974C67.2576 135.923 67.1819 135.887 67.1012 135.87C67.0205 135.853 66.937 135.855 66.8572 135.876C66.7774 135.897 66.7035 135.936 66.6415 135.99C66.5794 136.045 66.5309 136.113 66.4997 136.189C66.4341 136.36 66.4326 136.549 66.4953 136.721C66.5581 136.893 66.681 137.037 66.8413 137.126C66.9815 137.18 67.1366 137.18 67.2768 137.126C67.417 137.072 67.5323 136.968 67.6005 136.835C67.6751 136.685 67.714 136.521 67.714 136.354C67.714 136.187 67.6751 136.022 67.6005 135.873C67.6005 135.759 67.3348 135.721 67.3601 135.873L67.3222 135.974Z" fill="#FFB748"/>
<path d="M78.2927 107.352C76.2475 107.103 74.1826 107.622 72.4974 108.807C71.2976 109.464 70.3035 110.441 69.6251 111.629C69.273 112.275 69.0884 112.999 69.0884 113.736C69.0884 114.472 69.273 115.196 69.6251 115.842C69.8569 116.125 70.0524 116.435 70.2071 116.766C70.359 117.184 70.3211 117.664 70.4729 118.095C70.6247 118.525 71.1688 119.094 71.2447 119.702C71.2544 119.961 71.2125 120.22 71.1212 120.464C71.03 120.707 70.8914 120.93 70.7133 121.119C70.3691 121.481 70.106 121.912 69.9415 122.384C69.8276 122.903 70.0933 123.65 70.5488 123.65L72.9783 120.916C73.3832 120.461 73.9399 119.967 74.4587 120.258L73.0542 122.131C73.0615 122.2 73.0833 122.267 73.118 122.326C73.1527 122.386 73.1996 122.438 73.2557 122.479C73.3118 122.519 73.3757 122.548 73.4435 122.562C73.5112 122.576 73.5813 122.576 73.6489 122.561C73.9103 122.468 74.136 122.296 74.2943 122.068C75.18 121.043 76.0151 119.955 76.825 118.829L76.3694 118.297L77.3184 117.12C77.7517 117.322 78.1295 117.626 78.4192 118.006C77.6178 118.976 76.9886 120.076 76.5592 121.258C77.3058 121.6 78.0017 120.752 78.4446 119.993L80.5451 116.513C80.2034 117.082 81.6333 116.677 81.6206 116.677C82.0761 116.513 82.6582 115.324 82.8859 114.843C83.3538 113.995 83.5104 113.01 83.3288 112.059C82.9439 110.919 82.2825 109.893 81.4036 109.071C80.5247 108.25 79.4559 107.659 78.2927 107.352Z" fill="#92E3A9"/>
<path d="M69.9794 106.416C69.9025 106.35 69.8111 106.304 69.7128 106.281C69.6145 106.259 69.5122 106.26 69.4143 106.284C69.3165 106.309 69.226 106.357 69.1504 106.424C69.0748 106.491 69.0163 106.575 68.9798 106.669C68.9019 106.876 68.8998 107.104 68.9739 107.312C69.048 107.521 69.1936 107.696 69.3847 107.807C69.5552 107.874 69.7444 107.875 69.9152 107.809C70.0861 107.744 70.2264 107.617 70.3084 107.453C70.4037 107.272 70.4535 107.07 70.4535 106.865C70.4535 106.66 70.4037 106.458 70.3084 106.276C70.2325 106.137 69.9795 106.087 70.0174 106.276L69.9794 106.416Z" fill="#92E3A9"/>
<path d="M68.4862 116.943C68.4412 116.905 68.3877 116.878 68.3302 116.865C68.2726 116.852 68.2127 116.852 68.1555 116.867C68.0984 116.882 68.0458 116.911 68.002 116.95C67.9582 116.99 67.9246 117.04 67.9041 117.095C67.8565 117.214 67.8534 117.346 67.8952 117.466C67.937 117.587 68.0211 117.689 68.1318 117.753C68.2314 117.793 68.3425 117.795 68.4432 117.757C68.5439 117.72 68.627 117.646 68.676 117.55C68.7325 117.445 68.762 117.328 68.762 117.209C68.762 117.09 68.7325 116.972 68.676 116.867C68.676 116.779 68.4862 116.753 68.4988 116.867L68.4862 116.943Z" fill="#92E3A9"/>
<path d="M78.2927 107.352C76.2475 107.103 74.1826 107.622 72.4974 108.807C71.2976 109.464 70.3035 110.441 69.6251 111.629C69.273 112.275 69.0884 112.999 69.0884 113.736C69.0884 114.472 69.273 115.196 69.6251 115.842C69.8569 116.125 70.0524 116.435 70.2071 116.766C70.359 117.184 70.3211 117.664 70.4729 118.095C70.6247 118.525 71.1688 119.094 71.2447 119.702C71.2544 119.961 71.2125 120.22 71.1212 120.464C71.03 120.707 70.8914 120.93 70.7133 121.119C70.3691 121.481 70.106 121.912 69.9415 122.384C69.8276 122.903 70.0933 123.65 70.5488 123.65L72.9783 120.916C73.3832 120.461 73.9399 119.967 74.4587 120.258L73.0542 122.131C73.0615 122.2 73.0833 122.266 73.118 122.326C73.1527 122.386 73.1996 122.438 73.2557 122.479C73.3118 122.519 73.3757 122.548 73.4435 122.562C73.5112 122.576 73.5813 122.576 73.6489 122.561C73.9103 122.468 74.136 122.296 74.2943 122.068C75.18 121.043 76.0151 119.955 76.825 118.829L76.3694 118.297L77.3184 117.12C77.7517 117.322 78.1295 117.626 78.4192 118.006C77.6178 118.976 76.9886 120.076 76.5592 121.258C77.3058 121.6 78.0017 120.752 78.4446 119.993L80.5451 116.513C80.2034 117.082 81.6333 116.677 81.6206 116.677C82.0761 116.513 82.6582 115.324 82.8859 114.843C83.3538 113.995 83.5104 113.01 83.3288 112.059C82.9439 110.919 82.2825 109.893 81.4036 109.071C80.5247 108.25 79.4559 107.659 78.2927 107.352Z" fill="#FFB748"/>
<path opacity="0.8" d="M69.9795 106.416C69.9027 106.35 69.8113 106.304 69.7129 106.281C69.6146 106.259 69.5123 106.26 69.4145 106.284C69.3166 106.309 69.2261 106.357 69.1506 106.424C69.075 106.491 69.0165 106.575 68.98 106.669C68.902 106.876 68.8999 107.104 68.974 107.312C69.0481 107.521 69.1937 107.696 69.3849 107.807C69.5553 107.874 69.7445 107.875 69.9154 107.809C70.0863 107.744 70.2265 107.617 70.3086 107.453C70.4039 107.272 70.4537 107.07 70.4537 106.865C70.4537 106.66 70.4039 106.458 70.3086 106.276C70.2326 106.137 69.9796 106.087 70.0175 106.276L69.9795 106.416Z" fill="#FFB748"/>
<path opacity="0.8" d="M68.4864 116.943C68.4415 116.905 68.388 116.878 68.3304 116.865C68.2729 116.851 68.2129 116.852 68.1558 116.867C68.0987 116.882 68.046 116.911 68.0023 116.95C67.9585 116.99 67.9248 117.04 67.9043 117.095C67.8568 117.214 67.8536 117.346 67.8954 117.466C67.9373 117.587 68.0213 117.689 68.1321 117.753C68.2317 117.793 68.3428 117.795 68.4435 117.757C68.5442 117.72 68.6272 117.646 68.6762 117.55C68.7327 117.445 68.7623 117.328 68.7623 117.209C68.7623 117.09 68.7327 116.972 68.6762 116.867C68.6762 116.779 68.4864 116.753 68.4991 116.867L68.4864 116.943Z" fill="#FFB748"/>
<g opacity="0.4">
<g opacity="0.2">
<path opacity="0.2" d="M69.9795 106.416C69.9027 106.35 69.8113 106.304 69.7129 106.281C69.6146 106.259 69.5123 106.26 69.4145 106.284C69.3166 106.309 69.2261 106.357 69.1506 106.424C69.075 106.491 69.0165 106.575 68.98 106.669C68.902 106.876 68.8999 107.104 68.974 107.312C69.0481 107.521 69.1937 107.696 69.3849 107.807C69.5553 107.874 69.7445 107.875 69.9154 107.809C70.0863 107.744 70.2265 107.617 70.3086 107.453C70.4039 107.272 70.4537 107.07 70.4537 106.865C70.4537 106.66 70.4039 106.458 70.3086 106.276C70.2326 106.137 69.9796 106.087 70.0175 106.276L69.9795 106.416Z" fill="#FFB748"/>
</g>
<g opacity="0.2">
<path opacity="0.2" d="M68.4864 116.943C68.4415 116.905 68.388 116.878 68.3304 116.865C68.2729 116.851 68.2129 116.852 68.1558 116.867C68.0987 116.882 68.046 116.911 68.0023 116.95C67.9585 116.99 67.9248 117.04 67.9043 117.095C67.8568 117.214 67.8536 117.346 67.8954 117.466C67.9373 117.587 68.0213 117.689 68.1321 117.753C68.2317 117.793 68.3428 117.795 68.4435 117.757C68.5442 117.72 68.6272 117.646 68.6762 117.55C68.7327 117.445 68.7623 117.328 68.7623 117.209C68.7623 117.09 68.7327 116.972 68.6762 116.867C68.6762 116.779 68.4864 116.753 68.4991 116.867L68.4864 116.943Z" fill="#FFB748"/>
</g>
</g>
<path d="M74.2057 92.8258C73.3138 91.8791 72.1876 91.185 70.941 90.8139C69.5002 90.6013 68.0309 90.9158 66.8033 91.6997C66.3939 91.8882 66.0374 92.1751 65.7657 92.5348C65.3861 93.0662 65.2849 93.8001 64.8167 94.2556C64.1334 94.863 62.8301 94.6606 62.6783 95.6475C62.6547 95.8748 62.6986 96.1039 62.8043 96.3064C62.9101 96.5089 63.0731 96.6758 63.273 96.7863C63.6671 96.9733 64.1039 97.0519 64.5384 97.0141C64.5575 97.1765 64.5218 97.3407 64.437 97.4805C64.3522 97.6204 64.2231 97.7279 64.0702 97.786C63.7788 97.8605 63.495 97.9622 63.2225 98.0896C62.9739 98.3028 62.8076 98.5962 62.7524 98.919C62.6972 99.2418 62.7565 99.5738 62.9201 99.8574C63.0837 100.141 63.3413 100.359 63.6484 100.473C63.9554 100.587 64.2926 100.59 64.6016 100.481L62.2734 102.215C62.1036 102.311 61.9544 102.44 61.8349 102.594C61.7154 102.748 61.6279 102.925 61.5774 103.113C61.5586 103.381 61.6258 103.649 61.7691 103.876C61.9125 104.104 62.1245 104.28 62.3746 104.378C64.1967 105.087 65.7658 102.404 67.6891 102.417C68.6001 102.417 69.5239 103.062 70.3843 102.733C70.6655 102.582 70.9573 102.451 71.2574 102.341C71.6529 102.336 72.0451 102.414 72.4088 102.569C74.2309 103.05 76.2682 101 76.7237 99.0134C77.2045 96.6092 75.762 94.243 74.2057 92.8258Z" fill="#92E3A9"/>
<path d="M74.2057 92.8258C73.3138 91.8791 72.1876 91.185 70.941 90.8139C69.5002 90.6013 68.0309 90.9158 66.8033 91.6997C66.3939 91.8882 66.0374 92.1751 65.7657 92.5348C65.3861 93.0662 65.2849 93.8001 64.8167 94.2556C64.1334 94.863 62.8301 94.6606 62.6783 95.6475C62.6547 95.8748 62.6986 96.1039 62.8043 96.3064C62.9101 96.5089 63.0731 96.6758 63.273 96.7863C63.6671 96.9733 64.1039 97.0519 64.5384 97.0141C64.5575 97.1765 64.5218 97.3407 64.437 97.4805C64.3522 97.6204 64.2231 97.7279 64.0702 97.786C63.7788 97.8605 63.495 97.9622 63.2225 98.0896C62.9739 98.3028 62.8076 98.5962 62.7524 98.919C62.6972 99.2418 62.7565 99.5738 62.9201 99.8574C63.0837 100.141 63.3413 100.359 63.6484 100.473C63.9554 100.587 64.2926 100.59 64.6016 100.481L62.2734 102.215C62.1036 102.311 61.9544 102.44 61.8349 102.594C61.7154 102.748 61.6279 102.925 61.5774 103.113C61.5586 103.381 61.6258 103.649 61.7691 103.876C61.9125 104.104 62.1245 104.28 62.3746 104.378C64.1967 105.087 65.7658 102.404 67.6891 102.417C68.6001 102.417 69.5239 103.062 70.3843 102.733C70.6655 102.582 70.9573 102.451 71.2574 102.341C71.6529 102.336 72.0451 102.414 72.4088 102.569C74.2309 103.05 76.2682 101 76.7237 99.0134C77.2045 96.6092 75.762 94.243 74.2057 92.8258Z" fill="#FFB748"/>
<path d="M60.0465 106.289C59.8496 106.431 59.6942 106.624 59.5963 106.846C59.4985 107.068 59.4617 107.313 59.4897 107.554C59.5695 107.924 59.7924 108.247 60.1098 108.453C60.2786 108.605 60.4851 108.708 60.7077 108.753C60.9304 108.797 61.1609 108.781 61.3751 108.706C61.6499 108.52 61.8407 108.234 61.9065 107.909C62.006 107.223 61.9846 106.525 61.8433 105.846C61.5297 105.781 61.2055 105.786 60.8945 105.863C60.5835 105.94 60.2937 106.085 60.0465 106.289Z" fill="#92E3A9"/>
<path opacity="0.8" d="M60.0465 106.289C59.8496 106.431 59.6942 106.624 59.5963 106.846C59.4985 107.068 59.4617 107.313 59.4897 107.554C59.5695 107.924 59.7924 108.247 60.1098 108.453C60.2786 108.605 60.4851 108.708 60.7077 108.753C60.9304 108.797 61.1609 108.781 61.3751 108.706C61.6499 108.52 61.8407 108.234 61.9065 107.909C62.006 107.223 61.9846 106.525 61.8433 105.846C61.5297 105.781 61.2055 105.786 60.8945 105.863C60.5835 105.94 60.2937 106.085 60.0465 106.289Z" fill="#FFB748"/>
<path d="M58.7937 101.924C58.5912 101.823 58.3634 102.088 58.4014 102.341C58.4105 102.398 58.431 102.453 58.4616 102.502C58.4921 102.55 58.5322 102.593 58.5794 102.626C58.6266 102.659 58.68 102.682 58.7363 102.694C58.7927 102.706 58.8509 102.707 58.9075 102.696C59.0201 102.661 59.1215 102.597 59.2015 102.51C59.2815 102.423 59.3371 102.317 59.363 102.202L59.0214 101.936L58.7937 101.924Z" fill="#FFB748"/>
<path d="M61.1853 99.3804C61.0208 99.5196 60.7677 99.5196 60.6412 99.6967C60.6057 99.7477 60.5816 99.8057 60.5707 99.8668C60.5597 99.928 60.5621 99.9908 60.5778 100.051C60.5934 100.111 60.6219 100.167 60.6613 100.215C60.7006 100.263 60.7498 100.302 60.8057 100.329C60.8057 100.532 60.5653 100.646 60.4388 100.81C60.3122 100.975 60.249 101.253 60.4388 101.38C60.6286 101.506 60.7298 101.38 60.8437 101.291L61.3498 100.924C61.4854 100.846 61.5919 100.726 61.6534 100.582C61.6534 100.418 61.6535 100.203 61.4764 100.215L61.742 99.8612C61.7032 99.7783 61.647 99.7049 61.5771 99.6459C61.5072 99.5869 61.4253 99.5438 61.3371 99.5195C61.2359 99.5195 61.0967 99.3803 61.1726 99.3044L61.1853 99.3804Z" fill="#FFB748"/>
<path d="M49.7591 157.801C49.6176 157.685 49.4504 157.603 49.2714 157.563C49.0924 157.524 48.9066 157.527 48.729 157.572C48.5514 157.618 48.3871 157.705 48.2494 157.826C48.1118 157.947 48.0047 158.099 47.937 158.27C47.7932 158.644 47.7881 159.058 47.9227 159.437C48.0573 159.815 48.3227 160.132 48.6709 160.332C48.9817 160.45 49.3249 160.449 49.6353 160.33C49.9456 160.211 50.2014 159.982 50.3537 159.687C50.5224 159.36 50.6105 158.998 50.6105 158.63C50.6105 158.263 50.5224 157.9 50.3537 157.574C50.2272 157.321 49.7717 157.219 49.8223 157.51L49.7591 157.801Z" fill="#FFB748"/>
<path d="M53.2893 155.195C53.2432 155.157 53.1888 155.13 53.1304 155.117C53.072 155.104 53.0114 155.105 52.9534 155.12C52.8954 155.135 52.8417 155.163 52.7967 155.202C52.7518 155.242 52.7168 155.291 52.6946 155.347C52.6466 155.471 52.6445 155.608 52.6885 155.733C52.7326 155.858 52.8201 155.964 52.9351 156.03C53.038 156.07 53.1521 156.07 53.2551 156.031C53.3581 155.991 53.4425 155.914 53.4918 155.815C53.5483 155.708 53.5779 155.588 53.5779 155.467C53.5779 155.346 53.5483 155.226 53.4918 155.119C53.4918 155.031 53.302 155.005 53.3147 155.119L53.2893 155.195Z" fill="#FFB748"/>
</svg>
