<svg width="125" height="151" viewBox="0 0 125 151" fill="none" xmlns="http://www.w3.org/2000/svg">
<path d="M142.834 126.776C142.936 125.495 143 124.215 143 122.934C143 121.653 142.936 120.373 142.834 119.092L130.924 117.556C130.298 113.032 128.88 108.655 126.737 104.622L135.534 96.2987C134.167 94.0905 132.634 91.9887 130.95 90.0112L120.398 95.7609C117.228 92.4759 113.51 89.7678 109.411 87.7575L111.627 75.9509C109.226 74.9614 106.751 74.1608 104.225 73.5563L99.103 84.4153C94.6097 83.6127 90.0097 83.6127 85.5164 84.4153L80.3943 73.5563C77.8686 74.1608 75.3939 74.9614 72.9927 75.9509L75.2081 87.7575C71.1092 89.7678 67.3914 92.4759 64.221 95.7609L53.5797 89.9856C51.8812 91.9669 50.3399 94.0777 48.9697 96.2987L57.7031 104.545C55.5501 108.575 54.128 112.953 53.5029 117.479L41.5938 119.016C41.4914 120.296 41.4274 121.577 41.4274 122.857C41.4274 124.138 41.4914 125.418 41.5938 126.699L53.5029 128.248C54.13 132.769 55.552 137.143 57.7031 141.169L48.9697 149.428C50.3287 151.639 51.8572 153.741 53.5413 155.716L64.0929 149.953C67.2599 153.242 70.9784 155.951 75.08 157.957L72.8647 169.763C75.2655 170.757 77.7402 171.562 80.2662 172.171L85.3884 161.299C89.8817 162.102 94.4817 162.102 98.9749 161.299L104.097 172.171C106.623 171.562 109.098 170.757 111.499 169.763L109.283 157.957C113.385 155.951 117.103 153.242 120.27 149.953L130.822 155.716C132.506 153.738 134.039 151.637 135.406 149.428L126.673 141.169C128.83 137.164 130.269 132.813 130.924 128.312L142.834 126.776ZM92.2137 93.8657C96.661 93.8734 101.047 94.9055 105.031 96.8819C109.015 98.8584 112.49 101.726 115.187 105.262L96.5163 113.881C95.1724 113.24 93.7024 112.908 92.2137 112.908C90.7249 112.908 89.255 113.24 87.911 113.881L69.2407 105.262C71.9388 101.728 75.4142 98.8609 79.3979 96.8846C83.3816 94.9083 87.7667 93.8753 92.2137 93.8657ZM63.1966 122.883C63.1956 119.138 63.9219 115.428 65.3351 111.96L82.2254 123.869C82.3669 125.302 82.8152 126.687 83.54 127.931C84.2647 129.175 85.2489 130.249 86.4256 131.078L88.2952 151.567C81.3517 150.626 74.9838 147.202 70.3697 141.929C65.7556 136.656 63.2074 129.89 63.1966 122.883ZM96.1321 151.605L98.0017 131.117C99.1808 130.289 100.167 129.217 100.892 127.972C101.617 126.728 102.064 125.341 102.202 123.907L119.092 111.998C120.769 116.096 121.485 120.524 121.185 124.942C120.884 129.36 119.575 133.65 117.358 137.483C115.141 141.316 112.075 144.59 108.395 147.054C104.716 149.518 100.521 151.105 96.1321 151.695V151.605Z" fill="#FFB748" stroke="#263238" stroke-width="1.61224" stroke-linecap="round" stroke-linejoin="round"/>
<path d="M96.4395 122.883C96.442 123.719 96.1963 124.537 95.7335 125.234C95.2708 125.931 94.6116 126.474 93.8397 126.796C93.0678 127.118 92.2177 127.203 91.3971 127.042C90.5766 126.88 89.8224 126.479 89.2302 125.888C88.6379 125.298 88.2342 124.545 88.0701 123.725C87.906 122.905 87.9889 122.054 88.3083 121.281C88.6278 120.508 89.1694 119.848 89.8646 119.383C90.5598 118.918 91.3774 118.67 92.2137 118.67C93.3322 118.67 94.4051 119.113 95.1973 119.903C95.9894 120.693 96.4361 121.764 96.4395 122.883Z" fill="white" stroke="#263238" stroke-width="1.61224" stroke-linecap="round" stroke-linejoin="round"/>
<path d="M142.667 39.2249C142.744 38.3029 142.782 37.3809 142.782 36.4333C142.782 35.4857 142.782 34.5765 142.667 33.6545L134.152 32.5533C133.705 29.319 132.691 26.189 131.155 23.3077L137.404 17.4044C136.427 15.8254 135.331 14.3229 134.126 12.9097L126.571 17.0331C124.306 14.6783 121.645 12.7407 118.708 11.3091L120.296 2.85748C118.591 2.15956 116.836 1.59026 115.046 1.15436L111.358 8.91444C108.144 8.33394 104.852 8.33394 101.639 8.91444L97.9634 1.15436C96.1479 1.57276 94.367 2.12929 92.6363 2.81907L94.2242 11.2707C91.2915 12.7025 88.6342 14.6401 86.3744 16.9947L78.8321 12.8713C77.6231 14.2812 76.527 15.7841 75.5539 17.366L81.7517 23.3077C80.2217 26.1914 79.2076 29.3203 78.7552 32.5533L70.2396 33.6545C70.1756 34.5765 70.1244 35.4985 70.1244 36.4333C70.1244 37.3681 70.1244 38.3029 70.2396 39.2249L78.7552 40.3261C79.2076 43.5591 80.2217 46.688 81.7517 49.5717L75.5155 55.475C76.4918 57.0507 77.5878 58.549 78.7936 59.9569L86.336 55.8463C88.6026 58.1931 91.2584 60.1297 94.1858 61.5704L92.5979 70.0091C94.3168 70.7207 96.0895 71.2945 97.8993 71.725L101.575 63.965C104.79 64.528 108.079 64.528 111.294 63.965L114.982 71.725C116.787 71.2925 118.555 70.7188 120.27 70.0091L118.683 61.5704C121.614 60.1299 124.274 58.1934 126.545 55.8463L134.087 59.9569C135.289 58.5458 136.385 57.0478 137.366 55.475L131.117 49.5717C132.652 46.6904 133.667 43.5604 134.113 40.3261L142.667 39.2249ZM106.479 15.6885C109.654 15.6898 112.786 16.4215 115.632 17.8271C118.479 19.2327 120.964 21.2745 122.896 23.7944L109.552 29.9538C108.592 29.4982 107.542 29.2618 106.479 29.2618C105.416 29.2618 104.366 29.4982 103.406 29.9538L90.0496 23.7944C91.9828 21.2735 94.4701 19.2312 97.3191 17.8256C100.168 16.42 103.302 15.6888 106.479 15.6885ZM85.7214 36.4333C85.7212 33.7544 86.2432 31.1012 87.258 28.622L99.3336 37.1376C99.4368 38.1577 99.759 39.1435 100.278 40.0275C100.798 40.9116 101.502 41.673 102.343 42.2598L103.623 56.9348C98.6693 56.2494 94.1296 53.7975 90.8402 50.0303C87.5507 46.2632 85.7329 41.4345 85.7214 36.4333ZM109.271 56.922L110.615 42.247C111.452 41.6566 112.154 40.8942 112.673 40.0109C113.192 39.1275 113.516 38.1436 113.624 37.1248L125.687 28.6092C126.883 31.5375 127.392 34.7009 127.175 37.8566C126.959 41.0123 126.022 44.0764 124.437 46.8138C122.852 49.5511 120.661 51.8889 118.032 53.6478C115.403 55.4067 112.406 56.5399 109.271 56.9604V56.922Z" fill="white" stroke="#263238" stroke-width="1.61224" stroke-linecap="round" stroke-linejoin="round"/>
<path d="M106.479 39.4553C108.148 39.4553 109.501 38.1023 109.501 36.4332C109.501 34.7642 108.148 33.4111 106.479 33.4111C104.81 33.4111 103.457 34.7642 103.457 36.4332C103.457 38.1023 104.81 39.4553 106.479 39.4553Z" fill="white" stroke="#263238" stroke-width="1.61224" stroke-linecap="round" stroke-linejoin="round"/>
<path d="M49.8277 160.62C49.8277 160.006 49.9173 159.34 49.9173 158.776C49.9173 158.213 49.9173 157.496 49.8277 156.919L44.1549 156.177C43.8599 154.021 43.1835 151.936 42.1572 150.017L46.319 146.086C45.6709 145.033 44.9432 144.031 44.1421 143.09L39.1096 145.83C37.599 144.256 35.8269 142.956 33.8721 141.988L34.9222 136.367C33.7811 135.889 32.6035 135.504 31.4007 135.214L28.9421 140.336C27.8733 140.14 26.7889 140.042 25.7023 140.042C24.6157 140.043 23.5314 140.141 22.4625 140.336L20.0167 135.214C18.8103 135.506 17.6285 135.891 16.4824 136.367L17.5452 141.988C15.5885 142.953 13.8159 144.253 12.3078 145.83L7.27526 143.09C6.47007 144.028 5.74208 145.03 5.09836 146.086L9.26012 150.017C8.22969 151.935 7.5489 154.021 7.24966 156.177L1.57687 156.919C1.57687 157.534 1.5 158.2 1.5 158.776C1.5 159.352 1.50004 160.057 1.57687 160.62L7.24966 161.363C7.5489 163.519 8.22969 165.605 9.26012 167.522L5.08554 171.454C5.7381 172.507 6.47012 173.508 7.27526 174.45L12.3078 171.71C13.8123 173.29 15.5857 174.591 17.5452 175.551L16.4824 181.173C17.6285 181.649 18.8103 182.034 20.0167 182.325L22.4625 177.139C23.5314 177.334 24.6157 177.433 25.7023 177.434C26.7889 177.434 27.8733 177.335 28.9421 177.139L31.4007 182.325C32.6035 182.036 33.7811 181.651 34.9222 181.173L33.8721 175.551C35.8297 174.588 37.6025 173.287 39.1096 171.71L44.1421 174.45C44.9432 173.508 45.6709 172.507 46.319 171.454L42.1572 167.522C43.1835 165.604 43.8599 163.518 44.1549 161.363L49.8277 160.62ZM25.7023 144.959C27.8198 144.958 29.909 145.445 31.8078 146.382C33.7066 147.319 35.3639 148.682 36.6509 150.363L27.7511 154.474C27.1115 154.168 26.4112 154.01 25.7023 154.013C24.9937 154.013 24.294 154.171 23.6534 154.474L14.7536 150.363C16.0426 148.684 17.7003 147.323 19.5987 146.386C21.497 145.449 23.5853 144.961 25.7023 144.959ZM11.8724 158.802C11.8733 157.015 12.2212 155.245 12.8969 153.59L20.9387 159.263C21.0082 159.947 21.2236 160.609 21.5704 161.203C21.9172 161.797 22.3873 162.31 22.9491 162.707L23.8455 172.491C20.5278 172.041 17.4858 170.404 15.284 167.882C13.0822 165.359 11.87 162.124 11.8724 158.776V158.802ZM27.5719 172.491L28.4683 162.707C29.0282 162.31 29.4963 161.796 29.841 161.202C30.1856 160.608 30.3987 159.946 30.4659 159.263L38.5205 153.59C39.3125 155.543 39.6477 157.651 39.5006 159.753C39.3535 161.855 38.7278 163.896 37.6715 165.72C36.6152 167.543 35.1562 169.101 33.4058 170.275C31.6554 171.448 29.6599 172.206 27.5719 172.491Z" fill="white" stroke="#263238" stroke-width="1.61224" stroke-linecap="round" stroke-linejoin="round"/>
</svg>
