<svg width="119" height="148" viewBox="0 0 119 148" fill="none" xmlns="http://www.w3.org/2000/svg">
<path d="M41.349 137.227C41.6957 138.086 42.2116 138.868 42.8661 139.524C43.5206 140.181 44.3004 140.699 45.1591 141.049C46.5004 141.595 48.2927 141.476 50.358 142.639C55.0228 145.262 66.6669 142.924 75.1062 143.826C83.5455 144.728 94.9166 135.387 94.9166 135.387L128.401 137.227V103.992C128.401 103.992 93.4567 105.452 85.8838 102.532C78.311 99.6117 69.8717 93.5107 66.0853 93.7956C62.2989 94.0805 31.1411 97.582 31.1411 97.582L41.3371 137.227H41.349Z" fill="white" stroke="#2E353A" stroke-width="1.18696" stroke-linecap="round" stroke-linejoin="round"/>
<path d="M32.6846 3.21839C25.7709 3.98369 19.2394 6.78193 13.916 11.2593C8.59269 15.7367 4.71661 21.692 2.7779 28.3723C0.839192 35.0526 0.92496 42.1578 3.02436 48.7893C5.12376 55.4209 9.14248 61.281 14.5724 65.6285C20.0022 69.9761 26.5994 72.6159 33.5295 73.214C40.4597 73.8122 47.4116 72.3419 53.5062 68.9891C59.6007 65.6363 64.5642 60.5515 67.7688 54.3777C70.9735 48.204 72.2755 41.2186 71.5102 34.3049C71.005 29.7132 69.5996 25.2662 67.3744 21.218C65.1491 17.1699 62.1477 13.6002 58.5417 10.713C54.9358 7.82578 50.796 5.67776 46.3592 4.39177C41.9224 3.10578 37.2756 2.70706 32.6846 3.21839ZM39.6639 66.2224C34.1179 66.8385 28.5137 65.7962 23.56 63.2273C18.6063 60.6584 14.5256 56.6783 11.8339 51.7902C9.14222 46.9021 7.96049 41.3256 8.43811 35.7659C8.91572 30.2062 11.0312 24.913 14.5172 20.5556C18.0031 16.1982 22.7028 12.9723 28.0221 11.2859C33.3413 9.59955 39.0412 9.52835 44.4009 11.0814C49.7607 12.6344 54.5395 15.7419 58.1331 20.0108C61.7268 24.2798 63.9739 29.5186 64.5902 35.0646C64.9994 38.7471 64.6793 42.4742 63.6481 46.0331C62.6169 49.5919 60.8948 52.9127 58.5802 55.806C56.2656 58.6993 53.4037 61.1083 50.1581 62.8956C46.9124 64.6828 43.3465 65.8133 39.6639 66.2224Z" fill="white" stroke="#2E353A" stroke-width="1.18696" stroke-linecap="round" stroke-linejoin="round"/>
<path d="M32.4944 1.21239C25.5807 1.97768 19.0492 4.77593 13.7259 9.2533C8.40254 13.7307 4.52642 19.686 2.58771 26.3663C0.649007 33.0466 0.734774 40.1518 2.83418 46.7833C4.93358 53.4149 8.9523 59.275 14.3822 63.6225C19.8121 67.9701 26.4092 70.6099 33.3394 71.208C40.2696 71.8062 47.2214 70.3359 53.316 66.9831C59.4105 63.6302 64.374 58.5455 67.5787 52.3717C70.7833 46.198 72.0853 39.2126 71.32 32.299C70.2907 23.0294 65.6228 14.5478 58.3423 8.71852C51.0619 2.88926 41.7647 0.189407 32.4944 1.21239ZM39.4738 64.2164C33.9277 64.8325 28.3235 63.7902 23.3698 61.2213C18.4161 58.6524 14.3354 54.6723 11.6437 49.7842C8.95204 44.8961 7.7703 39.3196 8.24792 33.7599C8.72554 28.2002 10.8411 22.907 14.327 18.5496C17.8129 14.1922 22.5126 10.9663 27.8319 9.27994C33.1512 7.59355 38.851 7.52235 44.2108 9.07537C49.5705 10.6284 54.3493 13.7359 57.9429 18.0048C61.5366 22.2738 63.7837 27.5126 64.4 33.0586C64.8092 36.7411 64.4891 40.4682 63.4579 44.027C62.4267 47.5859 60.7046 50.9067 58.39 53.8C56.0754 56.6933 53.2136 59.1023 49.9679 60.8896C46.7222 62.6768 43.1563 63.8073 39.4738 64.2164Z" fill="white" stroke="#2E353A" stroke-width="1.18696" stroke-linecap="round" stroke-linejoin="round"/>
<path d="M41.3917 71.7775L39.7283 71.9617C37.8518 72.1696 36.499 73.8592 36.7069 75.7357L39.4064 100.109C39.6142 101.986 41.3039 103.339 43.1804 103.131L44.8438 102.946C46.7203 102.739 48.073 101.049 47.8652 99.1725L45.1657 74.7989C44.9579 72.9224 43.2682 71.5697 41.3917 71.7775Z" fill="#FFB748" stroke="#2E353A" stroke-width="1.18696" stroke-linecap="round" stroke-linejoin="round"/>
<path d="M40.8507 92.1218L44.4116 91.742C45.9429 91.5782 47.4771 92.0246 48.6814 92.9845C49.8857 93.9444 50.6631 95.3404 50.8449 96.8697L56.1744 145.072C56.391 147.043 55.8162 149.019 54.5764 150.566C53.3367 152.112 51.5334 153.104 49.563 153.322H49.3256C48.3496 153.43 47.3618 153.346 46.4186 153.072C45.4755 152.799 44.5955 152.342 43.8293 151.727C43.063 151.113 42.4253 150.354 41.9529 149.493C41.4805 148.632 41.1826 147.687 41.0762 146.71L35.7468 98.5196C35.661 97.7564 35.7265 96.9839 35.9397 96.2461C36.1529 95.5083 36.5095 94.8198 36.9891 94.2201C37.4687 93.6203 38.0619 93.121 38.7347 92.7508C39.4075 92.3805 40.1467 92.1466 40.9101 92.0625L40.8507 92.1218Z" fill="#2E353A" stroke="#2E353A" stroke-width="1.18696" stroke-linecap="round" stroke-linejoin="round"/>
<path d="M46.026 132.289C46.026 132.289 37.5867 132.597 36.3997 134.057C35.2128 135.517 35.4264 140.597 37.7172 141.179C43.5571 142.71 55.9727 141.82 56.4594 140.775C56.9461 139.731 57.9431 133.654 55.3793 133.001C52.2841 132.527 49.1573 132.288 46.026 132.289Z" fill="white" stroke="#2E353A" stroke-width="1.18696" stroke-linecap="round" stroke-linejoin="round"/>
<path d="M43.5927 120.514C43.5927 120.514 33.7765 120.146 32.2453 121.915C30.7141 123.683 30.4174 130.295 33.005 131.292C39.6045 133.82 54.4534 132.835 55.13 131.529C55.8065 130.223 57.2783 123.446 54.3703 122.354C51.4622 121.262 43.5927 120.514 43.5927 120.514Z" fill="white" stroke="#2E353A" stroke-width="1.18696" stroke-linecap="round" stroke-linejoin="round"/>
<path d="M42.1798 107.22C42.1798 107.22 31.687 106.817 30.049 108.716C28.411 110.615 28.0905 117.665 30.8561 118.734C37.9779 121.44 53.4085 121.44 54.1325 120.039C54.8566 118.639 56.8032 110.354 53.6933 109.179C50.5835 108.003 42.1798 107.22 42.1798 107.22Z" fill="white" stroke="#2E353A" stroke-width="1.18696" stroke-linecap="round" stroke-linejoin="round"/>
<path d="M36.1267 94.7806C36.1267 94.7806 25.6339 94.3889 23.9959 96.2762C22.3579 98.1634 21.9662 105.44 24.803 106.294C27.6399 107.149 47.3554 109 48.0794 107.612C48.8035 106.223 50.7501 97.9142 47.6402 96.7391C44.5304 95.564 36.1267 94.7806 36.1267 94.7806Z" fill="white" stroke="#2E353A" stroke-width="1.18696" stroke-linecap="round" stroke-linejoin="round"/>
<path d="M70.4892 129.689C68.6057 129.171 66.8209 128.345 65.2072 127.244C56.7679 121.416 57.0528 108.027 57.0528 108.027L55.0231 107.446C53.3466 106.808 51.7744 105.924 50.3584 104.822C51.038 107.588 51.4357 110.416 51.5453 113.262C51.5148 114.826 50.9038 116.322 49.8311 117.461C48.7583 118.6 47.3005 119.299 45.7411 119.422C43.1179 119.719 41.9547 120.004 41.0763 116.514C40.1979 113.024 35.8418 99.0419 35.545 97.0003C35.2839 95.1486 38.3938 91.8489 43.3434 91.0655C50.9518 91.6827 58.4534 93.8073 66.1212 93.8073C68.7892 94.0578 71.3459 94.9986 73.5397 96.5374" fill="white"/>
<path d="M70.4892 129.689C68.6057 129.171 66.8209 128.345 65.2072 127.244C56.7679 121.416 57.0528 108.027 57.0528 108.027L55.0231 107.446C53.3466 106.808 51.7744 105.924 50.3584 104.822C51.038 107.588 51.4357 110.416 51.5453 113.262C51.5148 114.826 50.9038 116.322 49.8311 117.461C48.7583 118.6 47.3005 119.299 45.7411 119.422C43.1179 119.719 41.9547 120.004 41.0763 116.514C40.1979 113.024 35.8418 99.0419 35.545 97.0003C35.2839 95.1486 38.3938 91.8489 43.3434 91.0655C50.9518 91.6827 58.4534 93.8073 66.1212 93.8073C68.7892 94.0578 71.3459 94.9986 73.5397 96.5374" stroke="#2E353A" stroke-width="1.18696" stroke-linecap="round" stroke-linejoin="round"/>
<path d="M78.5133 130.425C77.5881 130.473 76.6611 130.473 75.7358 130.425H78.5133Z" fill="white"/>
<path d="M78.5133 130.425C77.5881 130.473 76.6611 130.473 75.7358 130.425" stroke="#2E353A" stroke-width="1.18696" stroke-linecap="round" stroke-linejoin="round"/>
<path d="M84.721 129.274C82.7055 129.912 80.6219 130.31 78.5132 130.461L84.721 129.274Z" fill="white"/>
<path d="M84.721 129.274C82.7055 129.912 80.6219 130.31 78.5132 130.461" stroke="#2E353A" stroke-width="1.18696" stroke-linecap="round" stroke-linejoin="round"/>
<path d="M95.2019 125.499H105.683" stroke="#2E353A" stroke-width="1.18696" stroke-linecap="round" stroke-linejoin="round"/>
<path d="M96.0798 128.407H100.448" stroke="#2E353A" stroke-width="1.18696" stroke-linecap="round" stroke-linejoin="round"/>
<path d="M57.0527 108.027C57.0527 108.027 62.8451 108.027 66.6434 104.573" stroke="#2E353A" stroke-width="1.18696" stroke-linecap="round" stroke-linejoin="round"/>
<path d="M50.2276 104.443C50.0607 102.862 49.7305 101.303 49.2424 99.7897" stroke="#2E353A" stroke-width="1.18696" stroke-linecap="round" stroke-linejoin="round"/>
<path d="M40.9933 114.983C40.9933 114.983 39.8895 111.92 41.2307 110.817C42.572 109.713 46.1329 108.122 46.7501 109.345C47.3673 110.567 48.7086 116.205 48.3406 117.309L47.9727 118.413" stroke="#2E353A" stroke-width="0.593481" stroke-linecap="round" stroke-linejoin="round"/>
<path d="M201.886 152.123H101.528V102.793H201.886" fill="#FFB748"/>
<path d="M201.886 152.123H101.528V102.793H201.886" stroke="#2E353A" stroke-width="1.18696" stroke-linecap="round" stroke-linejoin="round"/>
<path d="M108.887 148.823C110.133 148.823 111.143 147.813 111.143 146.568C111.143 145.322 110.133 144.313 108.887 144.313C107.642 144.313 106.632 145.322 106.632 146.568C106.632 147.813 107.642 148.823 108.887 148.823Z" fill="white" stroke="#2E353A" stroke-width="1.18696" stroke-linecap="round" stroke-linejoin="round"/>
</svg>
